/* XPM */
static char * battery_ipodmini_redfill_12x22_black_16steps_04_xpm[] = {
"22 12 3 1",
" 	c None",
".	c #000000",
"+	c #FF7070",
"                      ",
" ...................  ",
" .                 .  ",
" . ++++            .  ",
" . ++++            .. ",
" . ++++             . ",
" . ++++             . ",
" . ++++            .. ",
" . ++++            .  ",
" .                 .  ",
" ...................  ",
"                      "};
