/* XPM */
static char * battery_ipodmini_greenfill_12x22_black_16steps_14_xpm[] = {
"22 12 3 1",
" 	c None",
".	c #BEBEBE",
"+	c #8BC34A",
"                      ",
" ...................  ",
" .                 .  ",
" . ++++++++++++++  .  ",
" . ++++++++++++++  .. ",
" . ++++++++++++++   . ",
" . ++++++++++++++   . ",
" . ++++++++++++++  .. ",
" . ++++++++++++++  .  ",
" .                 .  ",
" ...................  ",
"                      "};
