/* XPM */
static char * battery_ipodmini_greenfill_12x22_black_16steps_11_xpm[] = {
"22 12 3 1",
" 	c None",
".	c #000000",
"+	c #8BC34A",
"                      ",
" ...................  ",
" .                 .  ",
" . +++++++++++     .  ",
" . +++++++++++     .. ",
" . +++++++++++      . ",
" . +++++++++++      . ",
" . +++++++++++     .. ",
" . +++++++++++     .  ",
" .                 .  ",
" ...................  ",
"                      "};
