/* XPM */
static char * battery_ipodmini_12x22_black_16steps_3_xpm[] = {
"22 12 2 1",
" 	c None",
".	c #000000",
"                      ",
" ...................  ",
" .                 .  ",
" . ...             .  ",
" . ...             .. ",
" . ...              . ",
" . ...              . ",
" . ...             .. ",
" . ...             .  ",
" .                 .  ",
" ...................  ",
"                      "};
