/* XPM */
static char * battery_ipodmini_conditionalfill_12x22_black_16steps_06_xpm[] = {
"22 12 2 1",
" 	c None",
".	c #000000",
"                      ",
" ...................  ",
" .                 .  ",
" . ......          .  ",
" . ......          .. ",
" . ......           . ",
" . ......           . ",
" . ......          .. ",
" . ......          .  ",
" .                 .  ",
" ...................  ",
"                      "};
