/* XPM */
static char * battery_ipodmini_conditionalfill_12x22_black_16steps_02_xpm[] = {
"22 12 3 1",
" 	c None",
".	c #BEBEBE",
"+	c #FF7070",
"                      ",
" ...................  ",
" .                 .  ",
" . ++              .  ",
" . ++              .. ",
" . ++               . ",
" . ++               . ",
" . ++              .. ",
" . ++              .  ",
" .                 .  ",
" ...................  ",
"                      "};
