/* XPM */
static char * calendar_12x13_black_28steps_05_xpm[] = {
"13 12 2 1",
" 	c None",
".	c #000000",
"  ...   ...  ",
"  . .   . .  ",
" ........... ",
" ........... ",
" .         . ",
" .      .  . ",
" .         . ",
" .         . ",
" .         . ",
" .         . ",
" ........... ",
"             "};
