/* XPM */
static char * calendar_12x13_black_28steps_11_xpm[] = {
"13 12 2 1",
" 	c None",
".	c #BEBEBE",
"  ...   ...  ",
"  . .   . .  ",
" ........... ",
" ........... ",
" .         . ",
" .         . ",
" .     .   . ",
" .         . ",
" .         . ",
" .         . ",
" ........... ",
"             "};
