/* XPM */
static char * clock_12x12_black_24steps_01_xpm[] = {
"12 12 2 1",
" 	c None",
".	c #BEBEBE",
"            ",
"    ....    ",
"   .    .   ",
"  .      .  ",
" .    ..  . ",
" .   ..   . ",
" .   ..   . ",
" .        . ",
"  .      .  ",
"   .    .   ",
"    ....    ",
"            "};
