/* XPM */
static char * cpu_12x13_black_8steps_2_xpm[] = {
"13 12 2 1",
" 	c None",
".	c #BEBEBE",
"    . . .    ",
"   .......   ",
"  .       .  ",
" ..       .. ",
"  .       .  ",
" ..       .. ",
"  .       .  ",
" ........... ",
"  .........  ",
"   .......   ",
"    . . .    ",
"             "};
