/* XPM */
static char * debianlogo_12x12_black_xpm[] = {
"12 12 2 1",
" 	c None",
".	c #BEBEBE",
"    ....    ",
"   .......  ",
"  ...   ... ",
"  .   .  .. ",
" ..  .   .. ",
" ..  .   .. ",
" ..  .....  ",
"  .   ...   ",
"  ..        ",
"   ..       ",
"   ...      ",
"     .      "};
