/* XPM */
static char * downarrow_12x9_black_10steps_3_xpm[] = {
"9 12 2 1",
" 	c None",
".	c #BEBEBE",
"   ..    ",
"  .  .   ",
"  .  .   ",
"  .  .   ",
"  .  .   ",
"  .  .   ",
"...  ... ",
"........ ",
" ......  ",
"  ....   ",
"   ..    ",
"         "};
