/* XPM */
static char * grid_12x12_black_9steps_1_xpm[] = {
"12 12 2 1",
" 	c None",
".	c #000000",
"            ",
" .......... ",
" .  ....  . ",
" .  ....  . ",
" .......... ",
" .  .  .  . ",
" .  .  .  . ",
" .......... ",
" .  .  .  . ",
" .  .  .  . ",
" .......... ",
"            "};
