/* XPM */
static char * hl2_logo_12x12_black_xpm[] = {
"12 12 2 1",
" 	c None",
".	c #000000",
"            ",
"   ........ ",
"  .     .  .",
" .  ..   . .",
" .   .   .. ",
" .  ...  .  ",
" . .. .  .  ",
" . .  .. .  ",
"  .     .   ",
"   .....    ",
"            ",
"            "};
