/* XPM */
static char * lightningbolt_12x9_black_xpm[] = {
"9 12 2 1",
" 	c None",
".	c #000000",
"         ",
"   ..... ",
"   ....  ",
"  ....   ",
"  ...    ",
" ......  ",
" ......  ",
"   ...   ",
"  ...    ",
"  ..     ",
" ..      ",
"         "};
