/* XPM */
static char * memory_12x13_black_8steps_6_xpm[] = {
"13 12 2 1",
" 	c None",
".	c #000000",
"             ",
"   .......   ",
" ...     ... ",
"   .......   ",
" ........... ",
"   .......   ",
" ........... ",
"   .......   ",
" ........... ",
"   .......   ",
"             ",
"             "};
