/* XPM */
static char * pokeball_12x12_black_filled_xpm[] = {
"12 12 2 1",
" 	c None",
".	c #BEBEBE",
"    ....    ",
"  ..    ..  ",
" .        . ",
" .        . ",
".          .",
".    ..    .",
"..  .  .  ..",
".....  .....",
" .......... ",
" .......... ",
"  ........  ",
"    ....    "};
