/* XPM */
static char * temp_12x7_black_10steps_8_xpm[] = {
"7 12 2 1",
" 	c None",
".	c #000000",
"   .   ",
"  .    ",
"  ...  ",
"  ..   ",
"  ...  ",
"  ..   ",
"  ...  ",
" ..... ",
" ..... ",
" ..... ",
"  ...  ",
"       "};
