/* XPM */
static char * uparrow_12x9_black_10steps_6_xpm[] = {
"9 12 2 1",
" 	c None",
".	c #BEBEBE",
"   ..    ",
"  .  .   ",
" .    .  ",
".      . ",
"........ ",
"  ....   ",
"  ....   ",
"  ....   ",
"  ....   ",
"  ....   ",
"   ..    ",
"         "};
