/* XPM */
static char * wififill_12x20_black_xpm[] = {
"20 12 2 1",
" 	c None",
".	c #BEBEBE",
"                    ",
"  ................  ",
" .                . ",
" . .  . .... .  . . ",
" . .  . .  . .. . . ",
" . .  . .  . . .. . ",
" .  ..  ...  .  . . ",
" .  ..  .    .  . . ",
" .                . ",
"  ................  ",
"                    ",
"                    "};
