/* XPM */
static char * vpnsmall_12x16_black_xpm[] = {
"16 12 2 1",
" 	c None",
".	c #000000",
"                ",
"                ",
"  ............. ",
" .             .",
" . . . ..  . . .",
" . . . . . ... .",
" . . . ..  . . .",
" .  .  .   . . .",
" .             .",
"  ............. ",
"                ",
"                "};
