/* XPM */
static char * wififill_12x12_black_9steps_02_xpm[] = {
"12 12 2 1",
" 	c None",
".	c #BEBEBE",
"            ",
"            ",
"    ....    ",
"  ..    ..  ",
" .        . ",
" .        . ",
"  .  ..  .  ",
"   ......   ",
"    ....    ",
"     ..     ",
"            ",
"            "};
