/* XPM */
static char * wireframecube_13x13_black_xpm[] = {
"13 13 2 1",
" 	c None",
".	c #000000",
"     ...     ",
"   .. . ..   ",
"  .   .   .  ",
" .    .    . ",
"..    .    ..",
". .  . .  . .",
".  ..   ..  .",
". .  . .  . .",
"..    .    ..",
" .    .    . ",
"  .   .   .  ",
"   .. . ..   ",
"     ...     "};
